<?xml version="1.0"?><svg width="1141" height="876" xmlns="http://www.w3.org/2000/svg">
 <g>
  <title>Layer 1</title>
  <g id="svg_10">
   <path id="svg_4" fill="#000000" fill-rule="evenodd" stroke="#FEFEFE" stroke-width="0.5px" d="m531,368l-2.5,4l-0.299988,0.200012l-0.200012,0.299988l-0.200012,0.299988l-0.299988,0.200012l-0.299988,0.200012l-0.200012,0.299988l-0.200012,0.299988l-0.299988,0.200012l-0.299988,-0.200012l-0.200012,-0.299988l-0.200012,-0.299988l-0.299988,-0.200012l-0.299988,-0.200012q-0.200012,-0.299988 -2,-3l-1.700012,-2.799988l-0.5,-1l-0.5,-1l-0.5,1l-0.5,1l-2,6.5q-2,6.5 -2.5,7.5l-0.5,1l-0.5,1l-0.5,1l-0.299988,0.200012l-0.200012,0.299988l-0.200012,0.299988l-0.299988,0.200012l-0.299988,0.200012l-0.200012,0.299988l-1,0.5l-1,0.5l-1,0.5l-1,0.5l-0.200012,0.299988l-0.299988,0.200012l-0.299988,-7l-0.200012,-7l-1,0.200012l-1,0.299988l-1,0.5l-1,0.5l-1,0.5l-1,0.5l-0.200012,0.299988l-0.299988,0.200012l-0.299988,0.200012l-0.200012,0.299988l-1,0.299988l-1,0.200012l-0.200012,5q-0.299988,5 -0.799988,10l-0.5,5l-0.5,1.5l-0.5,1.5l-0.5,-1l-0.5,-1l-0.299988,-0.200012l-0.200012,-0.299988l-0.200012,-0.299988l-0.299988,-0.200012l-0.5,-1q-0.5,-1 -2,-5l-1.5,-4l-0.5,-1l-0.5,-1l-0.5,1l-0.5,1l-0.299988,0.200012l-0.200012,0.299988l-0.200012,0.299988l-0.299988,0.200012l-0.5,1l-0.5,1l-0.5,1.5l-0.5,1.5l-0.5,9q-0.5,9 -1,15.5l-0.5,6.5l-0.5,1l-0.5,1l-0.5,1.5l-0.5,1.5l-0.299988,0.200012l-0.200012,0.299988l-1,0.299988l-1,0.200012l-0.200012,-1l-0.299988,-1l-0.299988,-0.200012l-0.200012,-0.299988l-0.200012,-0.299988l-0.299988,-0.200012l-0.5,-1l-0.5,-1l0,-1l0,-1l0.5,-4.5q0.5,-4.5 1,-7.5l0.5,-3l0,-4.5l0,-4.5l-0.299988,0.200012l-0.200012,0.299988l-0.200012,0.299988l-0.299988,0.200012l-0.5,2l-0.5,2l-0.5,2l-0.5,2l-2.5,10.5q-2.5,10.5 -3,12l-0.5,1.5l-0.5,1.5l-0.5,1.5l-0.299988,0.200012l-0.200012,0.299988l-0.200012,0.299988l-0.299988,0.200012l-0.299988,0.200012l-0.200012,0.299988l-0.200012,0.299988l-0.299988,0.200012l-0.299988,0.200012l-0.200012,0.299988l-0.200012,0.299988l-0.299988,0.200012l-0.299988,0.200012l-0.200012,0.299988l-0.200012,0.299988l-0.299988,0.200012l0,-2l0,-2l0.5,-5q0.5,-5 1.799988,-16.5l1.200012,-11.5l-1,0l-1,0l-0.200012,1.5l-0.299988,1.5l-0.5,1l-0.5,1l-0.5,1.5l-0.5,1.5l-1.5,7.5q-1.5,7.5 -2,11l-0.5,3.5l-0.5,1l-0.5,1l-0.5,1l-0.5,1l-0.299988,0.200012l-0.200012,0.299988l-0.200012,0.299988l-0.299988,0.200012l-0.299988,0.200012l-0.200012,0.299988l-0.200012,0.299988l-0.299988,0.200012l0,-8q0,-8 2.5,-26.5q2.5,-18.5 19.200012,-31.299988q16.799988,-12.700012 36.799988,-26.200012l20,-13.5l1,-0.5l1,-0.5l1.5,-0.5l1.5,-0.5l1,-0.5l1,-0.5l-5.5,0q-5.5,0 -8,1q-2.5,1 -30.5,20l-28,19l-1,0.5l-1,0.5l-1,0.5l-1,0.5l-1.5,0.5l-1.5,0.5l-0.200012,0.299988l-0.299988,0.200012l0,-1.5l0,-1.5l0.5,-2l0.5,-2l0.299988,-1l0.200012,-1l8.200012,-6.5q8.299988,-6.5 8.599976,-6.700012l0.200012,-0.299988l0.200012,-0.299988l0.299988,-0.200012l0.299988,-0.200012l0.200012,-0.299988l0.200012,-0.299988l0.299988,-0.200012l0.299988,-0.200012l0.200012,-0.299988l1,-0.5l1,-0.5l0.200012,-0.299988l0.299988,-0.200012l0.299988,-0.200012l0.200012,-0.299988l0.200012,-0.299988l0.299988,-0.200012l0.299988,-0.200012l0.200012,-0.299988l0.200012,-0.299988l0.299988,-0.200012l0.299988,-0.200012l0.200012,-0.299988l-1,0l-1,0l-1,0.5l-1,0.5l-1,0.5l-1,0.5l-1.5,0.5l-1.5,0.5l-1,0.5q-1,0.5 -7,4q-6,3.5 -14.5,5.5l-8.5,2l-1.5,0.299988l-1.5,0.200012l0.200012,-1l0.299988,-1l0.299988,-0.200012l0.200012,-0.299988l1,-0.5l1,-0.5l1,-0.5l1,-0.5l14.200012,-7.299988q14.299988,-7.200012 14.599976,-7.400024l0.200012,-0.299988l1,-0.5l1,-0.5l0.200012,-0.299988l0.299988,-0.200012l0.299988,-0.200012l0.200012,-0.299988l1,-0.5l1,-0.5l0.200012,-0.299988l0.299988,-0.200012l0.299988,-0.200012l0.200012,-0.299988l1,-0.5l1,-0.5l-2.5,0l-2.5,0l-2.5,0.5q-2.5,0.5 -12,4.5q-9.5,4 -16.5,5l-7,1l-2.5,-0.299988l-2.5,-0.200012l0,-1l0,-1l1,-0.200012l1,-0.299988l1.5,-0.5l1.5,-0.5l1.5,-0.5l1.5,-0.5l13.5,-3.5q13.5,-3.5 15,-4l1.5,-0.5l1,-0.5l1,-0.5l1,-0.5l1,-0.5l1,-0.5l1,-0.5l-2.5,0l-2.5,0l-3,0.5q-3,0.5 -8,1.5q-5,1 -18.5,1.5l-13.5,0.5l-1.5,-0.5l-1.5,-0.5l-1,-0.5l-1,-0.5l-1,-0.5l-1,-0.5l-0.200012,-0.299988l-0.299988,-0.200012l-0.299988,-0.200012l-0.200012,-0.299988l3.5,-0.5l3.5,-0.5l16,-0.5q16,-0.5 18,-1l2,-0.5l1.5,-0.5l1.5,-0.5l1,-0.5l1,-0.5l1,-0.5l1,-0.5l0.200012,-0.299988l0.299988,-0.200012l0.299988,-0.200012l0.200012,-0.299988l-8.5,0q-8.5,0 -16.5,1q-8,1 -15,1l-7,0l-2,-0.299988l-2,-0.200012l0,-1l0,-1l1,-0.200012l1,-0.299988l1,-0.5l1,-0.5l0.200012,-0.299988l0.299988,-0.200012l0.299988,-0.200012l0.200012,-0.299988l19.5,-2.5q19.5,-2.5 27.5,-5q8,-2.5 22.5,-2.5q14.5,0 23,-1.5q8.5,-1.5 23.5,3.5q15,5 16,5.5l1,0.5l4.5,0l4.5,0l-1,-0.5l-1,-0.5l-0.200012,-0.299988l-0.299988,-0.200012l-0.299988,-0.200012l-0.200012,-0.299988l-1,-0.5l-1,-0.5l-1,-0.5l-1,-0.5l-1,-0.5q-1,-0.5 -3.5,-2q-2.5,-1.5 -12,-5q-9.5,-3.5 -22,-3.5l-12.5,0l-1.5,0l-1.5,0l-2.5,-0.5l-2.5,-0.5l0.200012,-0.299988l0.299988,-0.200012l0.299988,-0.200012l0.200012,-0.299988l0.200012,-0.299988l0.299988,-0.200012l0.299988,-0.200012l0.200012,-0.299988l0.200012,-0.299988l0.299988,-0.200012l0.299988,-0.200012l0.200012,-0.299988l2,-2q2,-2 2.200012,-2.299988l0.299988,-0.200012l0.299988,-0.200012l0.200012,-0.299988l0.200012,-0.299988l0.299988,-0.200012l0.299988,-0.200012l0.200012,-0.299988l0.200012,-0.299988l0.299988,-0.200012l0.299988,-0.200012l0.200012,-0.299988l0.200012,-0.299988l0.299988,-0.200012l0.299988,-0.200012l0.200012,-0.299988l-1,0l-1,0l-1,0.5l-1,0.5l-3,0.5q-3,0.5 -11.5,4q-8.5,3.5 -18.5,4.200012l-10,0.799988l-0.200012,-1.5l-0.299988,-1.5l-0.299988,-2l-0.200012,-2l1,-0.200012l1,-0.299988l0.200012,-0.299988l0.299988,-0.200012l0.299988,-0.200012l0.200012,-0.299988l9,-3q9,-3 11.5,-3.5l2.5,-0.5l2,-0.299988l2,-0.200012l0,-1l0,-1l-1,-0.200012l-1,-0.299988l-0.200012,-0.299988l-0.299988,-0.200012l-0.299988,-0.200012l-0.200012,-0.299988l-0.200012,-0.299988l-0.299988,-0.200012l-0.299988,-0.200012l-0.200012,-0.299988l-1,-0.5l-1,-0.5l-4.5,0q-4.5,0 -21,3.5l-16.5,3.5l-1,-0.5l-1,-0.5l-1,-0.5l-1,-0.5l-1,-0.5l-1,-0.5l-1,-0.5l-1,-0.5l1,-0.5l1,-0.5l0.200012,-0.299988l0.299988,-0.200012l0.299988,-0.200012l0.200012,-0.299988l1,-0.5l1,-0.5l6,-0.5q6,-0.5 13.5,-1l7.5,-0.5l2,-0.299988l2,-0.200012l0,-1l0,-1l-2,-0.200012l-2,-0.299988l-2,-0.5l-2,-0.5l-2,-0.5q-2,-0.5 -4,-1q-2,-0.5 -9.5,-3.5l-7.5,-3l-1,-0.5l-1,-0.5l-0.200012,-0.299988l-0.299988,-0.200012l-0.299988,-0.200012l-0.200012,-0.299988l-0.200012,-0.299988l-0.299988,-0.200012l-0.299988,-2.5l-0.200012,-2.5l1.5,0.200012l1.5,0.299988l1.5,0.5l1.5,0.5l8.5,2.5q8.5,2.5 10,3l1.5,0.5l4,0.299988l4,0.200012l0,-1l0,-1l-1,-0.200012l-1,-0.299988l-0.200012,-0.299988l-0.299988,-0.200012l-0.299988,-0.200012l-0.200012,-0.299988l-1,-0.5l-1,-0.5l-1,-0.5q-1,-0.5 -5.799988,-3.799988l-4.700012,-3.200012l-0.299988,-0.199997l-0.200012,-0.300003l-0.200012,-0.300003l-0.299988,-0.199997l-0.299988,-0.199997l-0.200012,-0.300003l-0.200012,-0.300003l-0.299988,-0.199997l-0.299988,-0.199997l-0.200012,-0.300003l-0.200012,-0.300003l-0.299988,-0.199997l-0.5,-1l-0.5,-1l-0.5,-1l-0.5,-1l-0.299988,-0.199997l-0.200012,-0.300003l1,0l1,0l2,0.5l2,0.5l8,3q8,3 26,12.5q18,9.5 19,10l1,0.5l1,0.5l1,0.5l0.200012,0.299988l0.299988,0.200012l0.299988,0.200012l0.200012,0.299988l1,0.5l1,0.5l0.200012,0.299988l0.299988,0.200012l0.299988,0.200012l0.200012,0.299988l0.200012,0.299988l0.299988,0.200012l0,-1l0,-1l-0.5,-1.5q-0.5,-1.5 -1.5,-4l-1,-2.5l-0.299988,-1l-0.200012,-1l1,0.200012l1,0.299988l0.200012,0.299988l0.299988,0.200012l0.299988,0.200012l0.200012,0.299988l1.5,0.5l1.5,0.5l4,2.5q4,2.5 5,3l1,0.5l1,0.5l1,0.5l0.200012,0.299988l0.299988,0.200012l0.299988,0.200012l0.200012,0.299988l1,0.5l1,0.5l0.200012,0.299988l0.299988,0.200012l0.299988,0.200012l0.200012,0.299988l0.200012,0.299988l0.299988,0.200012l0.299988,-0.200012l0.200012,-0.299988l0.200012,-0.299988l0.299988,-0.200012l0,-0.5l0,-0.5l-0.5,-1l-0.5,-1l-0.299988,-0.200012l-0.200012,-0.299988l-0.200012,-0.299988l-0.299988,-0.200012l-0.299988,-0.200012l-0.200012,-0.299988l-0.200012,-0.299988l-0.299988,-0.200012l-0.5,-1l-0.5,-1l-0.299988,-0.200012q-0.200012,-0.299988 -3.200012,-4.299988l-3,-4l-0.200012,-0.299988l-0.299988,-0.200012l-0.299988,-0.200012l-0.200012,-0.299988l-0.200012,-0.299988l-0.299988,-0.200012l-0.299988,-0.200012l-0.200012,-0.299988l-0.200012,-0.299988l-0.299988,-0.200012l-0.299988,-0.200012l-0.200012,-0.299988l-0.200012,-0.299988l-0.299988,-0.200012l-0.5,-1l-0.5,-1l0,-1l0,-1l0.299988,0.200012l0.200012,0.299988l1,0.5l1,0.5l1,0.5l1,0.5l1,0.5l1,0.5l0.200012,0.299988l0.299988,0.200012l0.299988,0.200012l0.200012,0.299988l11.799988,11.299988q11.700012,11.200012 18.700012,19.200012q7,8 7.299988,8.200012l0.200012,0.299988l0.200012,0.299988l0.299988,0.200012l0.299988,0.200012l0.200012,0.299988l1.5,0.5l1.5,0.5l0.200012,0.299988l0.299988,0.200012l0.299988,-0.200012l0.200012,-0.299988l2.5,-0.5l2.5,-0.5l-1,-0.5l-1,-0.5l-1,-0.5l-1,-0.5l-1,-0.5l-1,-0.5l-1,-0.5q-1,-0.5 -12.5,-15q-11.5,-14.5 -21.700012,-31.199997l-10.299988,-16.800003l-0.5,-1l-0.5,-1l-0.5,-1.5l-0.5,-1.5l0,-2l0,-2l0.299988,0.199997l0.200012,0.300003l0.200012,0.300003l0.299988,0.199997l0.299988,0.199997l0.200012,0.300003l0.200012,0.300003l0.299988,0.199997l0.299988,0.199997l0.200012,0.300003l0.200012,0.300003l0.299988,0.199997l0.299988,0.199997l0.200012,0.300003l0.200012,0.300003l0.299988,0.199997l0.299988,0.199997l0.200012,0.300003l0.200012,0.300003l0.299988,0.199997l0.299988,0.199997l0.200012,0.300003l0.200012,0.300003l0.299988,0.199997l0.299988,0.199997l0.200012,0.300003l8.5,11.5q8.5,11.5 8.700012,11.800003l0.299988,0.199997l0.5,1l0.5,1l0.299988,0.200012l0.200012,0.299988l0.200012,0.299988l0.299988,0.200012l0.299988,0.200012l0.200012,0.299988l0.200012,0.299988l0.299988,0.200012l0.299988,0.200012l0.200012,0.299988l0.200012,0.299988l0.299988,0.200012l0.299988,0.200012l0.200012,0.299988l1,0.299988l1,0.200012l-0.200012,-1l-0.299988,-1l-0.5,-1.5l-0.5,-1.5l-0.5,-1.5l-0.5,-1.5l-0.299988,-0.199997l-0.200012,-0.300003l-0.200012,-0.300003q-0.299988,-0.199997 -14.799988,-22.199997l-14.5,-22l-0.5,-1.5l-0.5,-1.5l-0.5,-1.5l-0.5,-1.5l-0.299988,-1l-0.200012,-1l1,0.199997l1,0.300003l0.200012,0.300003l0.299988,0.199997l0.299988,0.199997l0.200012,0.300003l1,0.5l1,0.5l0.200012,0.300003l0.299988,0.199997l0.299988,0.199997l0.200012,0.300003l1,0.5l1,0.5l4.200012,5.300003q4.299988,5.199997 4.599976,5.399994l0.200012,0.300003l0.200012,0.300003l0.299988,0.199997l0.299988,0.199997l0.200012,0.300003l0.200012,0.300003l0.299988,0.199997l0.299988,0.199997l0.200012,0.300003l0.200012,0.300003l0.299988,0.199997l0.299988,0.199997l0.200012,0.300003l0.200012,0.300003l0.299988,0.199997l0.299988,0.199997l0.200012,0.300003l0.200012,0.300003l0.299988,0.199997l0.299988,0.199997l0.200012,0.300003l1,0l1,0l-0.200012,-0.300003l-0.299988,-0.199997l-0.5,-2l-0.5,-2l-0.5,-2q-0.5,-2 -1,-4l-0.5,-2l0,-1.5l0,-1.5l0.299988,0.199997l0.200012,0.300003l0.200012,0.300003l0.299988,0.199997l0.5,1l0.5,1l0.299988,0.199997l0.200012,0.300003l0.200012,0.300003l0.299988,0.199997l0.5,1l0.5,1l1,1q1,1 1.5,2l0.5,1l0.299988,0.199997l0.200012,0.300003l0.200012,0.300003l0.299988,0.199997l0.299988,0.199997l0.200012,0.300003l0.200012,0.300003l0.299988,0.199997l0.299988,0.199997l0.200012,0.300003l0.200012,0.300003l0.299988,0.199997l0.299988,0.199997l0.200012,0.300003l0.200012,0.300003l0.299988,0.199997l0.299988,0.199997l0.200012,0.300003l0.200012,0.300003l0.299988,0.199997l0,-1.5l0,-1.5l-0.5,-2q-0.5,-2 -1,-3.5l-0.5,-1.5l-0.299988,-1l-0.200012,-1l1,0l1,0l0.200012,1l0.299988,1l0.299988,0.199997l0.200012,0.300003l0.200012,0.300003l0.299988,0.199997l0.299988,0.199997l0.200012,0.300003l0.200012,0.300003l0.299988,0.199997l0.5,1l0.5,1l2.700012,3.199997q2.799988,3.300003 3,3.600006l0.299988,0.199997l0.5,1l0.5,1l0.299988,0.199997l0.200012,0.300003l0.200012,0.300003l0.299988,0.199997l0.299988,0.199997l0.200012,0.300003l0.200012,0.300003l0.299988,0.199997l0.5,1l0.5,1l0.299988,0.199997l0.200012,0.300003l0.200012,0.300003l0.299988,0.199997l0,-1.5l0,-1.5l-0.5,-1.5q-0.5,-1.5 -1,-3.5l-0.5,-2l0,-2l0,-2l0.299988,0.199997l0.200012,0.300003l0.200012,0.300003l0.299988,0.199997l0.299988,0.199997l0.200012,0.300003l0.200012,0.300003l0.299988,0.199997l0.299988,0.199997l0.200012,0.300003l0.200012,0.300003l0.299988,0.199997l0.299988,0.199997l0.200012,0.300003l0.200012,0.300003l0.299988,0.199997l0.5,1l0.5,1l0.299988,0.199997l0.200012,0.300003l0.200012,0.300003l0.299988,0.199997l5,7q5,7 6.5,11q1.5,4 2,5l0.5,1l0.5,1l0.5,1l0.299988,0.199997l0.200012,0.300003l0.200012,0.300003l0.299988,0.199997l0.299988,-0.199997l0.200012,-0.300003l0.5,-2.699997q0.5,-2.800003 1.5,-2.600006l1,0.300003l0.200012,0.300003l0.299988,0.199997l0.299988,0.199997l0.200012,0.300003l3.200012,3.300003q3.299988,3.199997 7.299988,9.699997q4,6.5 4.5,7.5l0.5,1l0.5,1l0.5,1l0.299988,0.200012l0.200012,0.299988l0.200012,0.299988l0.299988,0.200012l0.299988,1l0.200012,1l1,0l1,0l0.200012,-3l0.299988,-3l0.5,-2.5q0.5,-2.5 3,-15q2.5,-12.5 5.5,-22.5l3,-10l0.5,-1l0.5,-1l0.299988,-0.199997l0.200012,-0.300003l0.200012,-0.300003l0.299988,-0.199997l0.299988,-0.199997l0.200012,-0.300003l0.200012,-0.300003l0.299988,-0.199997l0.299988,-0.199997l0.200012,-0.300003l0.200012,-0.300003l0.299988,-0.199997l0.299988,-0.199997l0.200012,-0.300003l0.200012,-0.300003l0.299988,-0.199997l0.299988,-0.199997l0.200012,-0.300003l0.200012,-0.300003l0.299988,-0.199997l0.5,8.5l0.5,8.5l0.299988,0.199997l0.200012,0.300003l0.200012,0.300003l0.299988,0.199997l0.5,-1.5l0.5,-1.5l0.5,-1l0.5,-1l0.5,-1.5l0.5,-1.5l3,-7.5q3,-7.5 3.5,-8.5l0.5,-1l0.5,-1l0.5,-1l0.299988,-0.199997l0.200012,-0.300003l0.200012,-0.300003l0.299988,-0.199997l0.299988,-1l0.200012,-1l1,-0.199997l1,-0.300003l0.200012,-0.300003l0.299988,-0.199997l0.299988,-0.199997l0.200012,-0.300003l0.200012,-0.300003l0.299988,-0.199997l0,2l0,2l-1,7q-1,7 -1.5,11.5l-0.5,4.5l0,3l0,3l0.299988,-0.199997l0.200012,-0.300003l0.200012,-0.300003l0.299988,-0.199997l0.5,-1.5l0.5,-1.5l0.5,-1.5l0.5,-1.5l0.5,-2q0.5,-2 4.200012,-14.5q3.799988,-12.5 4.799988,-12.5q1,0 -0.5,12.5q-1.5,12.5 -0.5,12.5q1,0 4.200012,-6.5q3.299988,-6.5 7,-10q3.799988,-3.5 3,-1q-0.700012,2.5 -9.200012,21.5q-8.5,19 -8.5,22q0,3 1.299988,2.199997q1.200012,-0.699997 5.400024,-8.399994q4.299988,-7.800003 8,-11.300003q3.799988,-3.5 3,0q-0.700012,3.5 -6.200012,16q-5.5,12.5 -3.200012,11.699997q2.200012,-0.699997 6.700012,-7.699997q4.5,-7 4.700012,-5.300003q0.299988,1.800003 -3.200012,12.800003q-3.5,11 -10,22q-6.5,11 -16.799988,22.200012q-10.200012,11.299988 -2.200012,14.299988q8,3 10.5,5.700012q2.5,2.799988 -2.299988,3.799988q-4.700012,1 -0.400024,4.799988q4.200012,3.700012 -10,0.400024q-14.299988,-3.200012 -10.799988,4.299988q3.5,7.5 5,15q1.5,7.5 -1,3.5q-2.5,-4 -4.799988,-1.5q-2.200012,2.5 -4.200012,3.700012q-2,1.299988 -5.5,1.799988q-3.5,0.5 -6.700012,7.200012q-3.299988,6.799988 -6,9.599976q-2.799988,2.700012 -4.599976,-7q-1.700012,-9.799988 -3,-13q-1.200012,-3.299988 -5.700012,-2.299988q-4.5,1 -7.299988,-2.299988q-2.700012,-3.200012 -4.400024,0.299988q-1.799988,3.5 -4.599976,2q-2.700012,-1.5 -0.200012,4.5q2.5,6 3.799988,2.5q1.200012,-3.5 2.700012,-2.700012q1.5,0.700012 6.5,1q5,0.200012 6.5,13.400024q1.5,13.299988 10.5,11q9,-2.200012 8.799988,-6.200012q-0.299988,-4 2,-5q2.200012,-1 2.400024,-2q0.299988,-1 4,-2.5q3.799988,-1.5 8.599976,9q4.700012,10.5 4,16.700012q-0.799988,6.299988 -3.299988,5.299988q-2.5,-1 -12,-1.700012q-9.5,-0.799988 -13.700012,6.700012q-4.299988,7.5 -10,10.5q-5.799988,3 -7,-2q-1.299988,-5 -1.799988,-4.5q-0.5,0.5 -3,19q-2.5,18.5 -4.799988,29q-2.200012,10.5 -3.400024,10q-1.299988,-0.5 -5,-4q-3.799988,-3.5 -5,1q-1.299988,4.5 -4.599976,10.299988q-3.200012,5.700012 -3.400024,1.400024q-0.299988,-4.200012 3.400024,-16.700012q3.799988,-12.5 -2.400024,-9q-6.299988,3.5 -0.299988,-9.5q6,-13 9.5,-22.5q3.5,-9.5 4.5,-16q1,-6.5 -2,-1q-3,5.5 -11,20q-8,14.5 -12.299988,18.700012q-4.200012,4.299988 -3,-6q1.299988,-10.200012 -1.400024,-8.400024q-2.799988,1.700012 -15.599976,25.400024q-12.700012,23.799988 -16.400024,26.299988q-3.799988,2.5 -2.599976,-2.5q1.299988,-5 5.799988,-14q4.5,-9 1.799988,-8q-2.799988,1 -8.299988,10.5q-5.5,9.5 -9,8.700012q-3.5,-0.700012 -2.299988,-5.400024q1.299988,-4.799988 4.799988,-9.799988q3.5,-5 6.200012,-7.799988q2.799988,-2.700012 4,-7q1.299988,-4.200012 -4.400024,1q-5.799988,5.299988 -12.299988,9q-6.5,3.799988 -6.5,1.299988q0,-2.5 3,-4.299988q3,-1.700012 8.5,-8q5.5,-6.200012 -0.5,-4.200012q-6,2 -6,1q0,-1 11,-7.799988q11,-6.700012 14.5,-10.400024q3.5,-3.799988 -3,-3.599976q-6.5,0.299988 -4.5,-2.700012q2,-3 13.5,-9q11.5,-6 13.299988,-8.299988q1.700012,-2.200012 -5.599976,-2.400024q-7.200012,-0.299988 -5,-3.599976q2.299988,-3.200012 16,-16.400024q13.799988,-13.299988 15.599976,-18q1.700012,-4.799988 -7.799988,1.200012q-9.5,6 -14.200012,7.5q-4.799988,1.5 -6,5q-1.299988,3.5 -3.799988,7.5zm128.200012,-149.199997q-0.200012,-0.300003 0,-0.600006q0.299988,-0.199997 0.299988,0.300003q0,0.5 -0.299988,0.300003zm-81,165.999985q-0.200012,-0.299988 0,-0.599976q0.299988,-0.200012 0.299988,0.299988q0,0.5 -0.299988,0.299988z"/>
   <path id="svg_5" fill="#000000" fill-rule="evenodd" stroke="#FEFEFE" stroke-width="0.5px" d="m795.5,330.200012l-2.5,0.299988l-18,1q-18,1 -20.5,2.5q-2.5,1.5 16,3q18.5,1.5 20.700012,2.200012q2.299988,0.799988 -0.400024,1.599976q-2.799988,0.700012 -25.799988,1.700012q-23,1 -20,3q3,2 19.5,2.5q16.5,0.5 20.299988,1.799988q3.700012,1.200012 5,2q1.200012,0.700012 -24.299988,0.700012q-25.5,0 -18,3.5q7.5,3.5 3,4.5q-4.5,1 -16.5,-2q-12,-3 -17,-2.700012q-5,0.200012 -5,1.200012q0,1 19,9.799988q19,8.700012 31,11.700012q12,3 12.5,3.5q0.5,0.5 -5,1q-5.5,0.5 -7.5,2q-2,1.5 10.799988,6.799988q12.700012,5.200012 13,5.400024q0.200012,0.299988 0.400024,0.599976l0.299988,0.200012l0.299988,0.200012l0.200012,0.299988l0.200012,0.299988l0.299988,0.200012l0.299988,0.200012l0.200012,0.299988l0.200012,0.299988l0.299988,0.200012l0.5,1l0.5,1l0.299988,0.200012l0.200012,0.299988l0.200012,0.299988l0.299988,0.200012l0.5,1l0.5,1l0.299988,1l0.200012,1l-3,-0.200012q-3,-0.299988 -5.5,-1.299988l-2.5,-1l-1,-0.299988l-1,-0.200012l0.200012,1l0.299988,1l0.299988,0.200012l0.200012,0.299988l0.799988,1.299988q0.700012,1.200012 1.200012,2.200012l0.5,1l0.299988,1l0.200012,1l-1.5,-0.200012l-1.5,-0.299988l-2.5,-0.5q-2.5,-0.5 -9.5,-3q-7,-2.5 -12,-3q-5,-0.5 -16.5,-9q-11.5,-8.5 -26.5,-20.5q-15,-12 -20.5,-19.5l-5.5,-7.5l-0.200012,-0.299988l-0.299988,-0.200012l-0.5,-1l-0.5,-1l-0.5,-1l-0.5,-1l-0.5,-1l-0.5,-1l-0.299988,-0.200012l-0.200012,-0.299988l-0.200012,-0.299988l-0.299988,-0.200012l-0.299988,0.200012l-0.200012,0.299988l-0.200012,0.299988l-0.299988,0.200012l-0.299988,0.200012l-0.200012,0.299988l0.200012,0.299988l0.299988,0.200012l0.299988,0.200012l0.200012,0.299988l0.200012,0.299988l0.299988,0.200012l0.5,1l0.5,1l0.5,1l0.5,1l8.700012,14.200012q8.799988,14.299988 18,26.599976q9.299988,12.200012 15.799988,23.700012q6.5,11.5 7,12.5l0.5,1l0.5,1.5l0.5,1.5l0,2.5l0,2.5l-0.299988,-0.200012l-0.200012,-0.299988l-0.200012,-0.299988l-0.299988,-0.200012l-0.299988,-0.200012l-0.200012,-0.299988l-0.200012,-0.299988l-0.299988,-0.200012l-0.299988,-0.200012l-0.200012,-0.299988l-1,-0.299988l-1,-0.200012l0,-1l0,-1l-1,-0.200012l-1,-0.299988l-0.200012,-0.299988q-0.299988,-0.200012 -6.799988,-9.700012l-6.5,-9.5l-0.299988,-0.200012l-0.200012,-0.299988l-0.200012,-0.299988l-0.299988,-0.200012l-0.5,-1l-0.5,-1l-0.299988,-0.200012l-0.200012,-0.299988l-0.200012,-0.299988l-0.299988,-0.200012l-0.5,-1l-0.5,-1l-0.299988,-0.200012l-0.200012,-0.299988l-0.200012,-0.299988l-0.299988,-0.200012l0,2l0,2l0.5,2l0.5,2l4.299988,7.799988q4.200012,7.700012 9.400024,15q5.299988,7.200012 5.299988,12.700012l0,5.5l-0.299988,-0.200012l-0.200012,-0.299988l-0.200012,-0.299988l-0.299988,-0.200012l-0.299988,-0.200012l-0.200012,-0.299988l-1,-0.5l-1,-0.5l-0.200012,-0.299988l-0.299988,-0.200012l-0.299988,-0.200012l-0.200012,-0.299988l-0.200012,-0.299988l-0.299988,-0.200012l-0.299988,-0.200012l-0.200012,-0.299988l-1,-0.5l-1,-0.5l-0.200012,-0.299988q-0.299988,-0.200012 -0.599976,-0.400024q-0.200012,-0.299988 -6.400024,-11.599976l-6.299988,-11.200012l-0.5,-1l-0.5,-1l-0.5,-1l-0.5,-1l-0.5,-1l-0.5,-1l-0.299988,-0.200012l-0.200012,-0.299988l-0.200012,-0.299988l-0.299988,-0.200012l0,2.5l0,2.5l0.5,2l0.5,2l6,13.5q6,13.5 6.5,15l0.5,1.5l0.5,2l0.5,2l0.299988,1l0.200012,1l-1.5,-0.200012l-1.5,-0.299988l-1.5,-0.5l-1.5,-0.5l-1,-0.5l-1,-0.5l-0.200012,-0.299988l-0.299988,-0.200012l-0.299988,-0.200012l-0.200012,-0.299988l-0.200012,-0.299988l-0.299988,-0.200012l-0.299988,-0.200012q-0.200012,-0.299988 -1.700012,-2.299988q-1.5,-2 -6.299988,-12.299988q-4.700012,-10.200012 -6.700012,-29.700012q-2,-19.5 -8.5,-32.5q-6.5,-13 -15.5,-27.5q-9,-14.5 -10,-17.5q-1,-3 1,-4.5q2,-1.5 0,-4q-2,-2.5 -0.5,-4.5q1.5,-2 1.5,-5q0,-3 -3.700012,-5.200012l-3.799988,-2.299988l-1,-0.5l-1,-0.5l-0.200012,-0.299988l-0.299988,-0.200012l-0.299988,-0.200012l-0.200012,-0.299988l2.5,-0.5l2.5,-0.5l7.5,0.5q7.5,0.5 17,2.5q9.5,2 12,0.5q2.5,-1.5 2.700012,-1.799988l0.299988,-0.200012l0.299988,-0.200012l0.200012,-0.299988l1,-0.5l1,-0.5l0.200012,-0.299988l0.299988,-0.200012l0.299988,-0.200012l0.200012,-0.299988l1,-0.5l1,-0.5l0.200012,-0.299988l0.299988,-0.200012l0.299988,-0.200012l0.200012,-0.299988l1,-0.5l1,-0.5l-2.5,0l-2.5,0l-2,0.5q-2,0.5 -2.5,1q-0.5,0.5 -4.5,1.5q-4,1 -10,-1.299988q-6,-2.200012 -4.200012,-4.700012l1.700012,-2.5l0.299988,-1l0.200012,-1l-1.5,0.200012l-1.5,0.299988l-1,0.5l-1,0.5l-2,0.5q-2,0.5 -5,1.5q-3,1 -8.5,1.5l-5.5,0.5l-0.200012,-0.299988l-0.299988,-0.200012l-0.299988,-0.200012l-0.200012,-0.299988l-0.200012,-0.299988l-0.299988,-0.200012l-0.299988,-0.200012l-0.200012,-0.299988l-0.200012,-0.299988l-0.299988,-0.200012l-0.299988,-0.200012l-0.200012,-0.299988l0.200012,-0.299988l0.299988,-0.200012l0.299988,-0.200012l0.200012,-0.299988l1.5,-0.5l1.5,-0.5l0.200012,-0.299988l0.299988,-0.200012l0.299988,-0.200012l0.200012,-0.299988l11.200012,-5.299988q11.299988,-5.200012 27.599976,-19q16.200012,-13.700012 23.700012,-20.700012q7.5,-7 8.5,-7.5l1,-0.5l1,-0.5l1,-0.5l0.200012,-0.300003l0.299988,-0.199997l0.299988,-0.199997l0.200012,-0.300003l1,-0.5l1,-0.5l1,-0.300003l1,-0.199997l-0.200012,1l-0.299988,1l-0.299988,0.199997l-0.200012,0.300003l-0.200012,0.300003l-0.299988,0.199997l-0.299988,0.199997l-0.200012,0.300003l-0.200012,0.300003l-0.299988,0.199997l-0.299988,0.199997l-0.200012,0.300003l-0.200012,0.300003l-0.299988,0.199997l-0.299988,0.199997l-0.200012,0.300003l-0.200012,0.300003l-0.299988,0.199997l-0.299988,0.199997l-0.200012,0.300003l-0.200012,0.300003l-0.299988,0.199997l-0.299988,0.199997q-0.200012,0.300003 -3.700012,3.800003l-3.5,3.5l-0.200012,0.300003l-0.299988,0.199997l-0.299988,0.199997l-0.200012,0.300003l-0.200012,0.300003l-0.299988,0.199997l-0.299988,0.199997l-0.200012,0.300003l-0.200012,0.300003l-0.299988,0.199997l-0.299988,0.199997l-0.200012,0.300003l-0.200012,0.300003l-0.299988,0.199997l-0.5,1l-0.5,1l0,1l0,1l0.299988,-0.200012l0.200012,-0.299988l1.5,-0.5l1.5,-0.5l1,-0.5l1,-0.5l1,-0.5l1,-0.5l10.5,-9.5q10.5,-9.5 12.5,-9.5q2,0 -6.200012,9.699997q-8.299988,9.800003 -8,10.599991q0.200012,0.700012 16.700012,-8.599991q16.5,-9.199997 16,-8q-0.5,1.300003 -1.5,1.600006q-1,0.199997 -4,4q-3,3.699997 -8.200012,8q-5.299988,4.199997 -5.599976,5.999985q-0.200012,1.700012 4.799988,-0.799988q5,-2.5 8.799988,-2.200012q3.700012,0.200012 0.400024,3.400024q-3.200012,3.299988 -18.700012,11.299988q-15.5,8 -16,8.5q-0.5,0.5 7.5,-1.5q8,-2 14.5,-3.700012q6.5,-1.799988 4,2q-2.5,3.700012 -13.5,8.700012q-11,5 -12.5,5.299988q-1.5,0.200012 -2.5,2.700012q-1,2.5 9,-0.299988q10,-2.700012 13.200012,-2.400024q3.299988,0.200012 -0.400024,4q-3.799988,3.700012 -24.299988,10.200012q-20.5,6.5 -10.5,6.5q10,0 28,-2q18,-2 19,-1.5q1,0.5 -9,3q-10,2.5 -22.799988,4.799988q-12.700012,2.200012 -10.400024,3.400024q2.200012,1.299988 26.700012,-1.700012q24.5,-3 31,-5q6.5,-2 8,0.299988q1.5,2.200012 -19,7q-20.5,4.700012 -22,5.700012q-1.5,1 10,1q11.5,0 19,-1q7.5,-1 16.700012,-0.700012q9.299988,0.200012 10,2.200012q0.799988,2 -1.700012,2.200012zm-86.299988,70.599976q-0.200012,-0.299988 0,-0.599976q0.299988,-0.200012 0.299988,0.299988q0,0.5 -0.299988,0.299988zm-5,13q-0.200012,-0.299988 0,-0.599976q0.299988,-0.200012 0.299988,0.299988q0,0.5 -0.299988,0.299988z"/>
   <path id="svg_6" fill="#000000" fill-rule="evenodd" stroke="#FEFEFE" stroke-width="0.5px" d="m610.799988,577.799988l-0.299988,0.200012l-0.299988,0.200012l-0.200012,0.299988l-0.200012,0.299988l-0.299988,0.200012l-0.299988,0.200012l-0.200012,0.299988l-0.200012,0.299988l-0.299988,0.200012l-0.299988,0.200012l-0.200012,0.299988l4,-0.299988q4,-0.200012 4.5,6q0.5,6.299988 -1.5,8.299988q-2,2 -3,2.5l-1,0.5l-0.200012,0.299988l-0.299988,0.200012l-0.299988,1l-0.200012,1l2.5,-0.200012q2.5,-0.299988 4,-0.599976l1.5,-0.200012l0.200012,1.5l0.299988,1.5l-0.299988,2.799988q-0.200012,2.700012 -1.200012,3q-1,0.200012 -3,2.400024q-2,2.299988 -2.200012,2.599976l-0.299988,0.200012l-0.299988,0.200012l-0.200012,0.299988l-0.200012,0.299988l-0.299988,0.200012l-0.299988,0.200012l-0.200012,0.299988l-0.200012,0.299988l-0.299988,0.200012l-0.299988,1l-0.200012,1l2.5,-0.200012q2.5,-0.299988 5,-0.599976l2.5,-0.200012l-0.799988,5.5q-0.700012,5.5 -2,6.700012q-1.200012,1.299988 -2.200012,1.799988l-1,0.5l-0.200012,0.299988l-0.299988,0.200012l-0.299988,0.200012l-0.200012,0.299988l-0.200012,0.299988l-0.299988,0.200012l-0.299988,1l-0.200012,1l1,-0.200012l1,-0.299988l3.5,-0.299988l3.5,-0.200012l-0.799988,5q-0.700012,5 -2,6.200012q-1.200012,1.299988 -2.200012,1.799988l-1,0.5l-0.200012,0.299988l-0.299988,0.200012l-0.299988,0.200012l-0.200012,0.299988l-0.200012,0.299988l-0.299988,0.200012l-0.299988,1l-0.200012,1l2,-0.200012q2,-0.299988 4,-0.599976q2,-0.200012 2,13.299988q0,13.5 -2,13.700012q-2,0.299988 -19,5.299988q-17,5 -23.799988,-0.700012q-6.700012,-5.799988 -3.700012,-15.799988q3,-10 6.299988,-8.799988l3.200012,1.299988l0.200012,0.299988l0.299988,0.200012l0,-1l0,-1l-0.299988,-0.200012l-0.200012,-0.299988l-0.200012,-0.299988l-0.299988,-0.200012l-0.299988,-0.200012l-0.200012,-0.299988l-0.200012,-0.299988q-0.299988,-0.200012 -1.299988,-1.200012q-1,-1 -1.299988,-8q-0.200012,-7 4.299988,-7.799988l4.5,-0.700012l-0.200012,-0.299988l-0.299988,-0.200012l-0.299988,-0.200012l-0.200012,-0.299988l-0.200012,-0.299988l-0.299988,-0.200012l-0.299988,-0.200012l-0.200012,-0.299988l-0.200012,-0.299988q-0.299988,-0.200012 -2,-2q-1.799988,-1.700012 -1.299988,-10.400024q0.5,-8.799988 4,-9l3.5,-0.299988l-0.200012,-0.299988l-0.299988,-0.200012l-0.299988,-0.200012l-0.200012,-0.299988l-1,-0.5q-1,-0.5 -1.799988,-1.200012q-0.700012,-0.799988 -0.700012,-7.799988q0,-7 1.700012,-7q1.799988,0 1,-2q-0.700012,-2 -1.400024,-10q-0.799988,-8 2.200012,-7.799988l3,0.299988l1,0l1,0l-0.200012,-0.299988l-0.299988,-0.200012l-0.299988,-0.200012l-0.200012,-0.299988l-0.200012,-0.299988l-0.299988,-0.200012l-0.299988,-0.200012l-0.200012,-0.299988l-0.200012,-0.299988l-0.299988,-0.200012l-0.299988,-0.200012q-0.200012,-0.299988 -2.200012,-2.299988q-2,-2 -1.200012,-7.299988q0.700012,-5.200012 3.400024,-5.400024q2.799988,-0.299988 1,-2q-1.700012,-1.799988 -2.400024,-8.299988q-0.799988,-6.5 1.700012,-6.700012q2.5,-0.299988 0.700012,-2.599976q-1.700012,-2.200012 -2,-9.700012q-0.200012,-7.5 2.299988,-7.299988q2.5,0.299988 0.700012,-1.400024q-1.700012,-1.799988 -2.400024,-9.299988q-0.799988,-7.5 2.700012,-7.299988l3.5,0.299988l-0.200012,-0.299988l-0.299988,-0.200012l-0.299988,-0.200012l-0.200012,-0.299988l-0.200012,-0.299988l-0.299988,-0.200012l-0.299988,-0.200012l-0.200012,-0.299988l-0.200012,-0.299988l-0.299988,-0.200012l-0.299988,-0.200012q-0.200012,-0.299988 -1.400024,-1.599976q-1.299988,-1.200012 -1.599976,-7.700012q-0.200012,-6.5 2.799988,-6.700012l3,-0.299988l-0.200012,-0.299988q-0.299988,-0.200012 -2.599976,-3q-2.200012,-2.700012 -1.700012,-9.400024q0.5,-6.799988 3,-6.599976l2.5,0.299988l-0.200012,-0.299988q-0.299988,-0.200012 -1.799988,-1.200012q-1.5,-1 -2.799988,-7.5q-1.200012,-6.5 1.799988,-6.700012l3,-0.299988l-0.200012,-0.299988q-0.299988,-0.200012 -2.299988,-2.700012q-2,-2.5 -2.700012,-8q-0.799988,-5.5 2.700012,-5.299988l3.5,0.299988l-0.200012,-0.299988l-0.299988,-0.200012l-0.299988,-0.200012l-0.200012,-0.299988l-0.200012,-0.299988l-0.299988,-0.200012l-2.5,-3q-2.5,-3 -2.200012,-6.799988q0.200012,-3.700012 9,-10q8.700012,-6.200012 8.700012,15.799988q0,22 -1.299988,23.799988q-1.200012,1.700012 1.799988,2q3,0.200012 1.799988,7.200012q-1.299988,7 -3,8.799988q-1.799988,1.700012 0.700012,2q2.5,0.200012 3.5,6.700012q1,6.5 -1.5,7.700012q-2.5,1.299988 0,1q2.5,-0.200012 3.5,6.799988q1,7 -3.5,10.200012q-4.5,3.299988 -0.5,2.599976q4,-0.799988 3.200012,5.200012q-0.700012,6 -2.400024,7.799988q-1.799988,1.700012 0.700012,2q2.5,0.200012 2.299988,8.200012q-0.299988,8 -3,10.200012q-2.799988,2.299988 1,3q3.700012,0.799988 3.700012,6.799988q0,6 -3.700012,9.799988q-3.799988,3.700012 0.200012,4q4,0.200012 4,5.700012q0,5.5 -2.5,6.700012q-2.5,1.299988 -2.700012,1.599976zm-3.599976,23q-0.200012,-0.299988 0,-0.599976q0.299988,-0.200012 0.299988,0.299988q0,0.5 -0.299988,0.299988z"/>
   <path id="svg_8" fill="#000000" fill-rule="evenodd" stroke="#FEFEFE" stroke-width="0.5px" d="m668,690l1,0.5l1,0.5l1,0.5l0.200012,0.299988l0.299988,0.200012l0.299988,0.200012l0.200012,0.299988l0.200012,0.299988l0.299988,0.200012l0.299988,0.200012l0.200012,0.299988l0.200012,0.299988l0.299988,0.200012l0.299988,0.200012l0.200012,0.299988l0.200012,0.299988l0.299988,0.200012l0.299988,0.200012l0.200012,0.299988l0.200012,0.299988l0.299988,0.200012l0.299988,0.200012l0.200012,0.299988l-6.5,0q-6.5,0 -10,-0.700012q-3.5,-0.799988 -4,3.700012q-0.5,4.5 -3.700012,3.5q-3.299988,-1 -4,3l-0.799988,4l-1,-0.200012l-1,-0.299988l-1,-0.5q-1,-0.5 -6.5,-4l-5.5,-3.5l-0.200012,-0.299988l-0.299988,-0.200012l-0.299988,-0.200012l-0.200012,-0.299988l-0.200012,-0.299988l-0.299988,-0.200012l-0.5,2q-0.5,2 -0.799988,3.5q-0.200012,1.5 -8.200012,0.299988l-8,-1.299988l0.200012,0.299988l0.299988,0.200012l1.5,3.5q1.5,3.5 2,4.5l0.5,1l0.299988,0.200012l0.200012,0.299988l-3.5,0l-3.5,0l-1.5,-0.5q-1.5,-0.5 -8.5,-4.5q-7,-4 -11,-1q-4,3 -6.5,3.5q-2.5,0.5 -6,-2.5q-3.5,-3 -6,-2q-2.5,1 -5.5,2q-3,1 -4.5,-1.299988q-1.5,-2.200012 -3.700012,-1.200012q-2.299988,1 -8.599976,4.200012l-6.200012,3.299988l-1.5,0.299988l-1.5,0.200012l-0.200012,-2q-0.299988,-2 -1.299988,-5.5q-1,-3.5 -6.700012,-2.700012l-5.799988,0.700012l-1,0l-1,0l0.200012,-0.299988l0.299988,-0.200012l0.5,-1l0.5,-1l0.299988,-0.200012l0.200012,-0.299988l0.200012,-0.299988l0.299988,-0.200012l0.299988,-0.200012l0.200012,-0.299988l0.200012,-0.299988l0.299988,-0.200012l0.5,-1q0.5,-1 3.5,-4l3,-3l0.299988,-0.200012l0.200012,-0.299988l0.200012,-0.299988l0.299988,-0.200012l0.299988,-0.200012l0.200012,-0.299988l0.200012,-0.299988l0.299988,-0.200012l0.299988,-0.200012l0.200012,-0.299988l-1,-0.5l-1,-0.5l-2,-0.5q-2,-0.5 -6.5,-2.5l-4.5,-2l-1,-0.299988l-1,-0.200012l0.200012,-1l0.299988,-1l0.299988,-0.200012l0.200012,-0.299988l0.200012,-0.299988l0.299988,-0.200012l0.5,-1l0.5,-1l0.299988,-0.200012l0.200012,-0.299988l2,-0.5l2,-0.5l12,-2q12,-2 19,-1.700012q7,0.200012 13,7q6,6.700012 8.5,8.200012q2.5,1.5 8.5,-0.5q6,-2 17,-5q11,-3 21.5,-3q10.5,0 22.5,3q12,3 15,4.5q3,1.5 4,2z"/>
   <path id="svg_9" fill="#000000" fill-rule="evenodd" stroke="#FDFDFD" stroke-width="0.5px" d="m660,379l-0.5,-1l-0.5,-1l-0.5,-1l-0.5,-1l-0.5,-1l-0.5,-1l-0.5,-1l-0.299988,-0.200012l-0.200012,-0.299988l-0.200012,-0.299988l-0.299988,-0.200012l0,3.5l0,3.5l1.700012,4.200012q1.799988,4.299988 7.599976,16q5.700012,11.799988 9.200012,24.799988q3.5,13 5,19q1.5,6 2,10l0.5,4l0,1l0,1l-0.299988,-0.200012l-0.200012,-0.299988l-0.200012,-0.299988l-0.299988,-0.200012l-0.299988,-0.200012l-0.200012,-0.299988l-0.200012,-0.299988l-0.299988,-0.200012l-0.5,-1l-0.5,-1l-0.5,-1l-0.5,-1l-0.5,-1q-0.5,-1 -1.5,-3l-1,-2l-0.299988,-0.200012l-0.200012,-0.299988l-0.200012,-0.299988l-0.299988,-0.200012l-0.5,-1l-0.5,-1l-0.299988,-0.200012l-0.200012,-0.299988l-0.200012,-0.299988l-0.299988,-0.200012l-0.5,-1l-0.5,-1l0,1.5l0,1.5l0.5,2.5q0.5,2.5 1,5l0.5,2.5l0,2l0,2l-0.299988,-0.200012l-0.200012,-0.299988l-0.200012,-0.299988l-0.299988,-0.200012l-0.5,-1l-0.5,-1l-0.299988,-0.200012l-0.200012,-0.299988l-0.200012,-0.299988l-0.299988,-0.200012l-0.5,-1l-0.5,-1l-0.299988,-0.200012l-0.200012,-0.299988l-0.200012,-0.299988l-0.299988,-0.200012l-0.5,-1q-0.5,-1 -1.5,-3.5q-1,-2.5 -5.5,-21.5l-4.5,-19l-0.5,-1.5l-0.5,-1.5l-0.5,-2l-0.5,-2l-0.5,-1l-0.5,-1l0.5,11q0.5,11 3.5,23q3,12 3,13.5l0,1.5l-0.5,2l-0.5,2l-0.5,1.5l-0.5,1.5l-0.299988,0.200012l-0.200012,0.299988l-0.200012,0.299988l-0.299988,0.200012l-0.5,-1l-0.5,-1l-0.5,-2l-0.5,-2l-0.5,-1l-0.5,-1l-0.5,-1.5q-0.5,-1.5 -4,-11.5l-3.5,-10l-0.5,-1.5l-0.5,-1.5l-0.5,-1.5l-0.5,-1.5l-0.5,-1.5l-0.5,-1.5l0,3l0,3l2,9.5q2,9.5 2.5,12l0.5,2.5l0,4.5l0,4.5l-0.299988,-0.200012l-0.200012,-0.299988l-0.200012,-0.299988l-0.299988,-0.200012l-0.5,-1l-0.5,-1l-0.5,-1l-0.5,-1l-0.5,-1l-0.5,-1l-0.5,-1.5q-0.5,-1.5 -3.5,-11l-3,-9.5l-0.5,-2l-0.5,-2l-0.5,-2l-0.5,-2l-0.299988,-0.200012l-0.200012,-0.299988l-0.200012,-0.299988l-0.299988,-0.200012l0,1.5l0,1.5l2.5,14q2.5,14 3,17l0.5,3l0,3l0,3l-0.299988,-0.200012l-0.200012,-0.299988l-0.200012,-0.299988l-0.299988,-0.200012l-0.5,-1l-0.5,-1l-0.299988,-0.200012l-0.200012,-0.299988l-0.200012,-0.299988l-0.299988,-0.200012l-0.299988,-0.200012l-0.200012,-0.299988l-0.200012,-0.299988l-0.299988,-0.200012l-0.299988,-0.200012l-0.200012,-0.299988l-0.200012,-0.299988l-0.299988,-0.200012l-0.5,-1.5q-0.5,-1.5 -1,-2.5q-0.5,-1 -4,-13l-3.5,-12l-0.5,-1l-0.5,-1l-0.5,-1.5l-0.5,-1.5l-0.5,-1l-0.5,-1l0,2.5l0,2.5l0.5,5q0.5,5 1,8.5l0.5,3.5l0,2.5l0,2.5l-0.299988,-0.200012l-0.200012,-0.299988l-0.200012,-0.299988l-0.299988,-0.200012l-0.5,-1.5l-0.5,-1.5l-0.5,-1.5l-0.5,-1.5l-0.5,-1.5q-0.5,-1.5 -4,-15q-3.5,-13.5 -1.799988,-15.700012l1.799988,-2.299988l0.200012,-0.299988l0.299988,-0.200012l0.299988,-0.200012l0.200012,-0.299988l0.200012,-0.299988l0.299988,-0.200012l0.299988,-0.200012l0.200012,-0.299988l0.200012,-0.299988l0.299988,-0.200012l0.299988,-1l0.200012,-1l9,2.799988q9,2.700012 10.200012,1.400024q1.299988,-1.200012 1.599976,-1.400024l0.200012,-0.299988l0.200012,-0.299988l0.299988,-0.200012l0.299988,-0.200012q0.200012,-0.299988 2,-3.599976q1.700012,-3.200012 0.700012,-9.200012q-1,-6 -4.700012,-14.200012l-3.799988,-8.299988l-0.200012,-0.299988l-0.299988,-0.200012l-0.5,-1l-0.5,-1l-0.5,-1l-0.5,-1l-0.5,-1l-0.5,-1l0,-1l0,-1l0.299988,0.200012l0.200012,0.299988l0.200012,0.299988l0.299988,0.200012l0.5,1l0.5,1l0.299988,0.200012l0.200012,0.299988l0.200012,0.299988l0.299988,0.200012l0.299988,0.200012l0.200012,0.299988l1.200012,1.700012q1.299988,1.799988 1.599976,2l0.200012,0.299988l0.200012,0.299988l0.299988,0.200012l0.299988,0.200012l0.200012,0.299988l0.200012,0.299988l0.299988,0.200012l0.299988,0.200012l0.200012,0.299988l1,0.299988l1,0.200012l0.200012,-4l0.299988,-4l-0.5,-10q-0.5,-10 -2.799988,-14q-2.200012,-4 4.599976,-1q6.700012,3 13.700012,10q7,7 17.5,25.5q10.5,18.5 13,24q2.5,5.5 3.200012,11.5q0.799988,6 -2.400024,5.5q-3.299988,-0.5 -9,-12.700012q-5.799988,-12.299988 -11.299988,-24q-5.5,-11.799988 -6.5,-11.799988q-1,0 2.200012,10.5q3.299988,10.5 8.799988,22q5.5,11.5 13,36q7.5,24.5 7.200012,28.700012q-0.200012,4.299988 -2.400024,3q-2.299988,-1.200012 -6.299988,-18.700012q-4,-17.5 -14.5,-39.5q-10.5,-22 -11,-23z"/>
  </g>
 </g>
</svg>